# AST/ASF file generated using VICON BodyLanguage
# -----------------------------------------------
:version 1.10
:name VICON
:units
  mass 1.0
  length 0.45
  angle deg
:documentation
   .ast/.asf automatically generated from VICON data using
   VICON BodyBuilder and BodyLanguage model FoxedUp or BRILLIANT.MOD
:root
   order TX TY TZ RX RY RZ
   axis XYZ
   position 0 0 0  
   orientation 0 0 0 
:bonedata
  begin
     id 1 
     name lhipjoint
     direction 0.537252 -0.787203 0.302774 
     length 2.29576 
     axis 0 0 0  XYZ
  end
  begin
     id 2 
     name lfemur
     direction 0.34202 -0.939693 0  
     length 7.31114  
     axis 0 0 20  XYZ
    dof rx ry rz
    limits (-160.0 20.0)
           (-70.0 70.0)
           (-60.0 70.0)
  end
  begin
     id 3 
     name ltibia
     direction 0.34202 -0.939693 0   
     length 8.36008   
     axis 0 0 20   XYZ
    dof rx
    limits (-10.0 170.0)
  end
  begin
     id 4 
     name lfoot
     direction 0.0969116 -0.266263 0.959016   
     length 2.16704   
     axis -90 7.62852e-016 20   XYZ
    dof rx rz
    limits (-45.0 90.0)
           (-70.0 20.0)
  end
  begin
     id 5 
     name ltoes
     direction 1.53563e-011 -4.21779e-011 1   
     length 1.08338   
     axis -90 7.62852e-016 20   XYZ
    dof rx
    limits (-90.0 20.0)
  end
  begin
     id 6 
     name rhipjoint
     direction -0.588228 -0.754791 0.290308   
     length 2.39434  
     axis 0 0 0  XYZ 
  end
  begin
     id 7 
     name rfemur
     direction -0.34202 -0.939693 0   
     length 7.45207   
     axis 0 0 -20   XYZ
    dof rx ry rz
    limits (-160.0 20.0)
           (-70.0 70.0)
           (-70.0 60.0)
  end
  begin
     id 8 
     name rtibia
     direction -0.34202 -0.939693 0   
     length 8.03565   
     axis 0 0 -20   XYZ
    dof rx
    limits (-10.0 170.0)
 end
 begin
     id 9 
     name rfoot
     direction -0.107009 -0.294004 0.949795   
     length 2.11509  
     axis -90 -7.62852e-016 -20   XYZ
    dof rx rz
    limits (-45.0 90.0)
           (-20.0 70.0)
  end
  begin
     id 10 
     name rtoes
     direction -1.53533e-011 -4.22004e-011 1   
     length 1.05493   
     axis -90 -7.62852e-016 -20   XYZ
    dof rx
    limits (-90.0 20.0)
  end
  begin
     id 11 
     name lowerback
     direction -0.0115208 0.997969 -0.0626515   
     length 2.03153   
     axis 0 0 0   XYZ
    dof rx ry rz
    limits (-20.0 45.0)
           (-30.0 30.0)
           (-30.0 30.0)
  end
  begin
     id 12 
     name upperback
     direction -0.00423475 0.999974 -0.00583614   
     length 2.03619   
     axis 0 0 0   XYZ
    dof rx ry rz
    limits (-20.0 45.0)
           (-30.0 30.0)
           (-30.0 30.0)
  end
  begin
     id 13 
     name thorax
     direction 0.00289429 0.999728 0.0231573   
     length 2.03921   
     axis 0 0 0   XYZ
    dof rx ry rz
    limits (-20.0 45.0)
           (-30.0 30.0)
           (-30.0 30.0)
  end
  begin
     id 14 
     name lowerneck
     direction 0.0188995 0.987777 0.154721   
     length 1.78836   
     axis 0 0 0   XYZ
    dof rx ry rz
    limits (-20.0 45.0)
           (-30.0 30.0)
           (-30.0 30.0)
  end
  begin
     id 15 
     name upperneck
     direction -0.00612612 0.992995 -0.118   
     length 1.81789   
     axis 0 0 0   XYZ
    dof rx ry rz
    limits (-20.0 45.0)
           (-30.0 30.0)
           (-30.0 30.0)
  end
  begin
     id 16
     name head
     direction -0.00420226 0.998397 -0.0564482  
     length 1.82234  
     axis 0 0 0   XYZ
    dof rx ry rz
    limits (-20.0 45.0)
           (-30.0 30.0)
           (-30.0 30.0)
  end
  begin
     id 17 
     name lclavicle
     direction 0.916488 0.396539 0.0529676  
     length 3.51732  
     axis 0 0 0   XYZ
    dof ry rz
    limits (-20.0 10.0)
           (0.0 20.0)
  end
  begin
     id 18 
     name lhumerus
     direction 1 -4.4896e-011 8.36962e-028   
     length 5.45077   
     axis 180 -30 -90   XYZ
    dof rx ry rz
    limits (-60.0 90.0)
           (-90.0 90.0)
           (-90.0 90.0)
  end
  begin
     id 19
     name lradius
     direction 1 -4.48962e-011 3.01407e-027   
     length 3.05488   
     axis 180 -30 -90   XYZ
    dof rx
    limits (-10.0 170.0)
  end
  begin
     id 20
     name lwrist
     direction 1 -4.49002e-011 4.72961e-027   
     length 1.52744   
     axis -2.72261e-015 90 90   XYZ
    dof ry
    limits (-180.0 0.0)
 end
  begin
     id 21 
     name lhand
     direction 1 -4.4899e-011 9.45681e-027   
     length 0.638818   
     axis -6.0311e-015 90 90   XYZ
    dof rx rz
    limits (-90.0 90.0)
           (-45.0 45.0)
  end
  begin
     id 22 
     name lfingers
     direction 1 -4.48871e-011 1.88632e-026   
     length 0.515032   
     axis -1.20625e-014 90 90   XYZ
    dof rx
    limits (0.0 90.0)
  end
  begin
     id 23
     name lthumb
     direction 0.707107 -6.34964e-011 0.707107   
     length 0.739485   
     axis -90 45 6.32835e-014   XYZ
    dof rx rz
    limits (-45.0 45.0)
           (-45.0 45.0)
  end
  begin
     id 24 
     name rclavicle
     direction -0.949427 0.303202 0.0815894   
     length 3.76167  
     axis 0 0 0   XYZ 
    dof ry rz
    limits (-10.0 20.0)
           (-20.0 0.0)
  end
  begin
     id 25 
     name rhumerus
     direction -1 -4.48971e-011 -6.43969e-018  
     length 4.88702   
     axis 180 30 90   XYZ
    dof rx ry rz
    limits (-90.0 60.0)
           (-90.0 90.0)
           (-90.0 90.0)
  end
  begin
     id 26 
     name rradius
     direction -1 -4.48987e-011 5.46662e-027   
     length 3.22603   
     axis 180 30 90   XYZ
    dof rx
    limits (-10.0 170.0)
  end
  begin
     id 27 
     name rwrist
     direction -1 -4.48956e-011 4.72476e-027   
     length 1.61302   
     axis -2.72261e-015 -90 -90   XYZ
    dof ry
    limits (-180.0 0.0)
  end
  begin
     id 28
     name rhand
     direction -1 -4.4889e-011 9.43571e-027   
     length 0.716293   
     axis -6.0311e-015 -90 -90   XYZ
    dof rx rz
    limits (-90.0 90.0)
           (-45.0 45.0)
  end
  begin
     id 29
     name rfingers
     direction -1 -4.48887e-011 1.88701e-026   
     length 0.577494   
     axis -1.20625e-014 -90 -90   XYZ
    dof rx
    limits (0.0 90.0)
  end
  begin
     id 30
     name rthumb
     direction -0.707107 -6.34825e-011 0.707107   
     length 0.829169   
     axis -90 -45 -6.32835e-014   XYZ
    dof rx rz
    limits (-45.0 45.0)
           (-45.0 45.0)
  end
:hierarchy
  begin
    root lhipjoint rhipjoint lowerback
    lhipjoint lfemur
    lfemur ltibia
    ltibia lfoot
    lfoot ltoes
    rhipjoint rfemur
    rfemur rtibia
    rtibia rfoot
    rfoot rtoes
    lowerback upperback
    upperback thorax
    thorax lowerneck lclavicle rclavicle
    lowerneck upperneck
    upperneck head
    lclavicle lhumerus
    lhumerus lradius
    lradius lwrist
    lwrist lhand lthumb
    lhand lfingers
    rclavicle rhumerus
    rhumerus rradius
    rradius rwrist
    rwrist rhand rthumb
    rhand rfingers
  end

#!OML:ASF F:\VICON\USERDATA\INSTALL\rory3\rory3.ASF
:FULLY-SPECIFIED
:DEGREES
1557
root 1.71866 18.5362 0.76406 9.77265 74.6958 -2.6376
lowerback -13.3358 -6.30762 -6.08572
upperback -5.8534 -7.03623 -5.63737
thorax 1.24871 -3.30818 -3.52015
lowerneck -7.33968 -16.7352 -10.6529
upperneck 5.85283 -22.2092 8.86898
head 5.06705 -10.7843 2.48572
rclavicle 6.36111e-015 -7.31528e-014
rhumerus 58.4924 -42.9324 -71.4744
rradius 65.5386
rwrist -182.196
rhand -9.25534 -9.94272
rfingers 7.12502
rthumb 16.7006 -39.2443
lclavicle 6.36111e-015 -7.31528e-014
lhumerus 54.5406 -44.0593 65.445
lradius 94.9375
lwrist 238.516
lhand -18.6392 -23.4321
lfingers 7.12502
lthumb 7.65345 6.40941
rfemur -9.93024 4.37619 16.7407
rtibia 1.35174e-014
rfoot -0.125531 10.5332
rtoes -1.25808
lfemur -11.2981 7.96996 -17.9847
ltibia 15.1639
lfoot -16.3116 11.8534
ltoes -25.0795
1558
root 1.71264 18.5355 0.767818 10.0347 74.5899 -2.32711
lowerback -13.404 -6.22783 -6.35455
upperback -5.79397 -6.88984 -5.56002
thorax 1.3907 -3.23202 -3.28323
lowerneck -6.96955 -16.8097 -10.8404
upperneck 5.46892 -22.3419 9.2664
head 4.96944 -10.8508 2.64674
rclavicle -3.57812e-015 4.77083e-014
rhumerus 58.2394 -43.0483 -71.1321
rradius 65.9918
rwrist -182.441
rhand -9.24584 -9.83192
rfingers 7.12502
rthumb 16.7098 -39.1328
lclavicle -3.57812e-015 4.77083e-014
lhumerus 52.263 -43.8192 66.0193
lradius 96.6701
lwrist 237.063
lhand -20.0145 -23.2095
lfingers 7.12502
lthumb 6.32586 6.676
rfemur -9.94401 4.46726 16.6318
rtibia -1.03368e-014
rfoot -0.0436648 10.5371
rtoes -0.842646
lfemur -11.2634 7.7639 -18.0474
ltibia 15.1997
lfoot -16.3952 12.0767
ltoes -24.8583
1559
root 1.7093 18.5327 0.771245 10.0698 74.5073 -2.24707
lowerback -13.5071 -6.12738 -6.4769
upperback -5.70329 -6.72817 -5.52131
thorax 1.56192 -3.15298 -3.16849
lowerneck -6.87395 -16.9199 -10.8339
upperneck 5.35825 -22.5132 9.44529
head 4.95701 -10.9303 2.6858
rclavicle 9.34288e-014 8.5875e-014
rhumerus 57.9324 -43.2433 -70.8583
rradius 66.4656
rwrist -182.834
rhand -9.11838 -9.90714
rfingers 7.12502
rthumb 16.8325 -39.1976
lclavicle 9.34288e-014 8.5875e-014
lhumerus 49.9371 -43.562 66.4357
lradius 98.497
lwrist 235.507
lhand -21.3247 -22.6788
lfingers 7.12502
lthumb 5.06082 7.24075
rfemur -9.91879 4.5444 16.5864
rtibia -9.54166e-015
rfoot 0.000575583 10.6067
rtoes -0.433766
lfemur -11.2197 7.65698 -18.0631
ltibia 15.2301
lfoot -16.3675 12.2963
ltoes -25.0591
1560
root 1.70661 18.5312 0.771467 10.2037 74.4526 -2.1296
lowerback -13.693 -6.06579 -6.53687
upperback -5.60617 -6.61529 -5.48004
thorax 1.77653 -3.09987 -3.10103
lowerneck -6.99506 -16.9978 -10.6876
upperneck 5.41811 -22.6208 9.39533
head 4.98264 -10.9771 2.62903
rclavicle 6.0033e-014 -1.27222e-014
rhumerus 57.7084 -43.376 -70.5549
rradius 66.8047
rwrist -183.457
rhand -8.98225 -10.0292
rfingers 7.12502
rthumb 16.9635 -39.3084
lclavicle 6.0033e-014 -1.27222e-014
lhumerus 47.4886 -43.1137 66.7443
lradius 100.555
lwrist 233.736
lhand -22.6037 -22.6523
lfingers 7.12502
lthumb 3.82582 7.29313
rfemur -9.97377 4.58964 16.5317
rtibia 9.93923e-015
rfoot -0.0160353 10.6323
rtoes -0.148338
lfemur -11.2444 7.59675 -18.1013
ltibia 15.2147
lfoot -16.3594 12.3918
ltoes -25.1292
1561
root 1.70486 18.5304 0.772921 9.8201 74.3873 -2.50431
lowerback -13.8341 -5.98359 -6.38801
upperback -5.5041 -6.51128 -5.4362
thorax 1.95047 -3.05545 -3.13993
lowerneck -7.10842 -17.0349 -10.5445
upperneck 5.46463 -22.6749 9.36664
head 5.00089 -10.9974 2.58662
rclavicle -5.40694e-014 -9.54166e-015
rhumerus 57.637 -43.4226 -70.5182
rradius 67.1064
rwrist -183.894
rhand -9.08095 -10.2632
rfingers 7.12502
rthumb 16.8685 -39.5505
lclavicle -5.40694e-014 -9.54166e-015
lhumerus 44.9452 -42.5504 66.832
lradius 102.637
lwrist 232.076
lhand -23.9315 -22.842
lfingers 7.12502
lthumb 2.54347 7.12256
rfemur -9.98152 4.67574 16.6284
rtibia 4.57205e-014
rfoot 0.0601387 10.6574
rtoes 0.285362
lfemur -11.1913 7.56338 -17.974
ltibia 15.1896
lfoot -16.4765 12.4369
ltoes -24.6475
1562
root 1.69986 18.53 0.773388 9.63964 74.2374 -2.63313
lowerback -13.916 -5.84409 -6.27877
upperback -5.4133 -6.3334 -5.42105
thorax 2.08248 -2.9732 -3.16807
lowerneck -7.12698 -17.1205 -10.5338
upperneck 5.49908 -22.8021 9.43593
head 5.03361 -11.0544 2.58452
rclavicle 5.1684e-015 4.45278e-014
rhumerus 57.4917 -43.4269 -70.5094
rradius 67.4637
rwrist -184.15
rhand -9.11816 -10.397
rfingers 7.12502
rthumb 16.8327 -39.6874
lclavicle 5.1684e-015 4.45278e-014
lhumerus 42.3328 -42.0749 66.793
lradius 104.645
lwrist 230.368
lhand -25.2919 -22.8839
lfingers 7.12502
lthumb 1.22965 7.09233
rfemur -9.97256 4.83562 16.6468
rtibia 1.39149e-014
rfoot 0.0890997 10.646
rtoes 0.165333
lfemur -11.1119 7.61555 -17.9359
ltibia 15.1775
lfoot -16.5613 12.4705
ltoes -24.3654
1563
root 1.6928 18.5312 0.771055 9.83374 74.0884 -2.38064
lowerback -14.006 -5.69908 -6.29093
upperback -5.30359 -6.12931 -5.40604
thorax 2.2516 -2.87657 -3.12773
lowerneck -7.05859 -17.2394 -10.5422
upperneck 5.33614 -22.9674 9.54957
head 5.00217 -11.1341 2.60815
rclavicle -1.86858e-014 9.54166e-015
rhumerus 57.3727 -43.5092 -70.3593
rradius 67.738
rwrist -184.444
rhand -9.18881 -10.3448
rfingers 7.12502
rthumb 16.7647 -39.641
lclavicle -1.86858e-014 9.54166e-015
lhumerus 39.762 -41.6914 66.5729
lradius 106.704
lwrist 228.58
lhand -26.1047 -22.8979
lfingers 7.12502
lthumb 0.44466 7.08139
rfemur -9.97003 4.97243 16.5466
rtibia -9.93923e-015
rfoot 0.0759076 10.6158
rtoes -0.107702
lfemur -11.0784 7.70068 -18.0253
ltibia 15.1955
lfoot -16.5692 12.478
ltoes -24.3274
1564
root 1.68441 18.5328 0.768686 9.93563 74.021 -2.23678
lowerback -14.044 -5.60409 -6.28048
upperback -5.21681 -6.00302 -5.36071
thorax 2.369 -2.81812 -3.07355
lowerneck -6.96061 -17.3264 -10.5031
upperneck 5.06928 -23.087 9.66945
head 4.9253 -11.1934 2.64168
rclavicle 4.73108e-014 8.26944e-014
rhumerus 57.2164 -43.565 -69.9909
rradius 67.9397
rwrist -184.77
rhand -9.1698 -10.2751
rfingers 7.12502
rthumb 16.783 -39.5697
lclavicle 4.73108e-014 8.26944e-014
lhumerus 36.9823 -41.3189 66.3008
lradius 108.626
lwrist 226.748
lhand -27.0266 -22.4733
lfingers 7.12502
lthumb -0.445766 7.50598
rfemur -9.95509 5.03484 16.4986
rtibia -1.94809e-014
rfoot 0.0546858 10.5617
rtoes -0.367272
lfemur -11.0604 7.76327 -18.0756
ltibia 15.1788
lfoot -16.5459 12.4849
ltoes -24.2538
1565
root 1.67953 18.5336 0.765419 9.88792 73.9363 -2.263
lowerback -14.1104 -5.5147 -6.12349
upperback -5.138 -5.90389 -5.30106
thorax 2.48025 -2.77501 -3.09066
lowerneck -6.99852 -17.3924 -10.57
upperneck 4.95118 -23.1693 9.80036
head 4.926 -11.2281 2.67567
rclavicle -1.28812e-013 -7.95139e-014
rhumerus 57.1241 -43.5617 -69.6706
rradius 68.1398
rwrist -184.986
rhand -8.97018 -10.382
rfingers 7.12502
rthumb 16.9751 -39.6603
lclavicle -1.28812e-013 -7.95139e-014
lhumerus 34.1703 -40.9536 65.857
lradius 110.462
lwrist 224.65
lhand -27.6773 -21.7885
lfingers 7.12502
lthumb -1.07425 8.1885
rfemur -9.95908 5.12024 16.4871
rtibia 3.37934e-014
rfoot 0.0610087 10.5275
rtoes -0.594965
lfemur -11.0452 7.92142 -18.0949
ltibia 15.17
lfoot -16.5305 12.4122
ltoes -24.0319
1566
root 1.67345 18.5334 0.762087 10.0085 73.8313 -2.09168
lowerback -14.1168 -5.41188 -6.06071
upperback -5.06317 -5.78172 -5.23084
thorax 2.56561 -2.7192 -3.0352
lowerneck -7.0465 -17.4726 -10.5457
upperneck 4.77214 -23.2607 9.82955
head 4.88707 -11.2712 2.67323
rclavicle -1.37161e-013 -1.03368e-013
rhumerus 57.0373 -43.6375 -69.1356
rradius 68.2539
rwrist -185.208
rhand -8.86402 -10.3713
rfingers 7.12502
rthumb 17.0773 -39.6407
lclavicle -1.37161e-013 -1.03368e-013
lhumerus 31.5117 -40.6629 65.2863
lradius 112.189
lwrist 222.728
lhand -28.0336 -21.5569
lfingers 7.12502
lthumb -1.41835 8.41812
rfemur -9.95273 5.21556 16.4105
rtibia -1.19271e-015
rfoot 0.120429 10.4842
rtoes -0.311092
lfemur -11.0207 8.07597 -18.1675
ltibia 15.1849
lfoot -16.4765 12.3582
ltoes -24.1791
1567
root 1.66404 18.5335 0.757314 9.94284 73.7489 -2.13502
lowerback -13.9845 -5.40017 -6.00043
upperback -5.04527 -5.80712 -5.01758
thorax 2.531 -2.73568 -2.83629
lowerneck -7.14912 -17.4772 -10.5669
upperneck 4.59077 -23.2303 9.79015
head 4.84097 -11.2568 2.66863
rclavicle 3.83654e-014 5.56597e-014
rhumerus 57.0901 -43.3811 -68.6962
rradius 68.3127
rwrist -185.316
rhand -8.78855 -10.2346
rfingers 7.12502
rthumb 17.15 -39.4977
lclavicle 3.83654e-014 5.56597e-014
lhumerus 28.5782 -40.1354 64.7328
lradius 113.597
lwrist 221.392
lhand -28.6967 -20.9559
lfingers 7.12502
lthumb -2.05879 9.01395
rfemur -9.96813 5.30094 16.4071
rtibia -4.33351e-014
rfoot 0.115065 10.4237
rtoes -0.326615
lfemur -11.0535 8.25515 -18.1809
ltibia 15.2219
lfoot -16.3979 12.3021
ltoes -24.2419
1568
root 1.65514 18.5336 0.751266 10.0313 73.6247 -2.03287
lowerback -13.8218 -5.39684 -5.95073
upperback -5.05886 -5.8472 -4.78596
thorax 2.44977 -2.75835 -2.61049
lowerneck -7.33103 -17.4743 -10.6855
upperneck 4.52284 -23.1795 9.721
head 4.84761 -11.2303 2.65693
rclavicle -3.45885e-014 -2.06736e-014
rhumerus 57.3266 -43.0069 -68.4641
rradius 68.296
rwrist -185.274
rhand -8.72774 -10.3597
rfingers 7.12502
rthumb 17.2085 -39.6178
lclavicle -3.45885e-014 -2.06736e-014
lhumerus 25.2335 -39.6122 64.399
lradius 114.657
lwrist 219.967
lhand -29.4184 -20.0718
lfingers 7.12502
lthumb -2.75583 9.8901
rfemur -10.0029 5.41533 16.3387
rtibia -1.07344e-014
rfoot 0.146567 10.4051
rtoes -0.385276
lfemur -11.0937 8.36469 -18.2558
ltibia 15.2583
lfoot -16.3229 12.4009
ltoes -24.6757
1569
root 1.64843 18.5339 0.746183 9.99651 73.4274 -2.05075
lowerback -13.715 -5.27328 -5.81065
upperback -5.03362 -5.72533 -4.68393
thorax 2.41719 -2.70238 -2.55089
lowerneck -7.36191 -17.5336 -10.6591
upperneck 4.26094 -23.2442 9.82151
head 4.78666 -11.2587 2.68242
rclavicle 1.78906e-013 7.79236e-014
rhumerus 57.4987 -43.0098 -68.3171
rradius 68.2293
rwrist -185.315
rhand -8.84575 -10.5882
rfingers 7.12502
rthumb 17.0949 -39.8561
lclavicle 1.78906e-013 7.79236e-014
lhumerus 21.8358 -39.4047 64.0646
lradius 115.49
lwrist 218.299
lhand -29.9095 -19.2184
lfingers 7.12502
lthumb -3.23007 10.7369
rfemur -10.0584 5.60866 16.2895
rtibia -3.97569e-014
rfoot 0.285741 10.412
rtoes -0.198898
lfemur -11.1088 8.40998 -18.2875
ltibia 15.3203
lfoot -16.3487 12.5492
ltoes -24.9392
1570
root 1.64286 18.533 0.738994 10.0365 73.2164 -2.02679
lowerback -13.6573 -5.09644 -5.63084
upperback -5.00377 -5.52962 -4.63156
thorax 2.40718 -2.61003 -2.55827
lowerneck -7.34663 -17.6291 -10.5972
upperneck 3.96986 -23.3704 9.98441
head 4.71941 -11.3163 2.71816
rclavicle -7.43455e-014 2.70347e-014
rhumerus 57.5882 -43.1518 -68.0852
rradius 68.1671
rwrist -185.348
rhand -8.77134 -10.5686
rfingers 7.12502
rthumb 17.1665 -39.8303
lclavicle -7.43455e-014 2.70347e-014
lhumerus 18.5816 -39.407 63.4855
lradius 116.304
lwrist 216.876
lhand -30.1093 -18.4802
lfingers 7.12502
lthumb -3.42298 11.4721
rfemur -10.1368 5.80877 16.2159
rtibia 8.34896e-015
rfoot 0.336113 10.4216
rtoes -0.346925
lfemur -11.1442 8.36173 -18.3276
ltibia 15.3664
lfoot -16.4637 12.6797
ltoes -24.3916
